{"asset": {"version": "2.0", "generator": "naviapp-ar-generator"}, "scene": 0, "scenes": [{"nodes": [0]}], "nodes": [{"mesh": 0, "name": "arrow.gltf"}], "meshes": [{"primitives": [{"attributes": {"POSITION": 0, "NORMAL": 1}, "indices": 2, "material": 0}]}], "materials": [{"name": "material", "pbrMetallicRoughness": {"baseColorFactor": [0.0, 0.9, 0.45, 1.0], "metallicFactor": 0.0, "roughnessFactor": 0.9}, "doubleSided": true}], "accessors": [{"bufferView": 0, "componentType": 5126, "count": 240, "type": "VEC3", "min": [-0.085, -0.085, 0.0], "max": [0.085, 0.085, 0.55]}, {"bufferView": 1, "componentType": 5126, "count": 240, "type": "VEC3"}, {"bufferView": 2, "componentType": 5123, "count": 240, "type": "SCALAR"}], "bufferViews": [{"buffer": 0, "byteOffset": 0, "byteLength": 2880, "target": 34962}, {"buffer": 0, "byteOffset": 2880, "byteLength": 2880, "target": 34962}, {"buffer": 0, "byteOffset": 5760, "byteLength": 480, "target": 34963}], "buffers": [{"byteLength": 6240, "uri": "data:application/octet-stream;base64,"}]}