{"asset": {"version": "2.0", "generator": "naviapp-ar-generator"}, "scene": 0, "scenes": [{"nodes": [0]}], "nodes": [{"mesh": 0, "name": "destination.gltf"}], "meshes": [{"primitives": [{"attributes": {"POSITION": 0, "NORMAL": 1}, "indices": 2, "material": 0}]}], "materials": [{"name": "material", "pbrMetallicRoughness": {"baseColorFactor": [0.95, 0.25, 0.25, 1.0], "metallicFactor": 0.0, "roughnessFactor": 0.9}, "doubleSided": true}], "accessors": [{"bufferView": 0, "componentType": 5126, "count": 1152, "type": "VEC3", "min": [-0.12, -0.12, -0.12], "max": [0.12, 0.12, 0.12]}, {"bufferView": 1, "componentType": 5126, "count": 1152, "type": "VEC3"}, {"bufferView": 2, "componentType": 5123, "count": 1152, "type": "SCALAR"}], "bufferViews": [{"buffer": 0, "byteOffset": 0, "byteLength": 13824, "target": 34962}, {"buffer": 0, "byteOffset": 13824, "byteLength": 13824, "target": 34962}, {"buffer": 0, "byteOffset": 27648, "byteLength": 2304, "target": 34963}], "buffers": [{"byteLength": 29952, "uri": "data:application/octet-stream;base64,"}]}